<svg id="visual" viewBox="0 0 960 540" width="960" height="540" xmlns="http://www.w3.org/2000/svg" xmlns:xlink="http://www.w3.org/1999/xlink" version="1.1"><rect x="0" y="0" width="960" height="540" fill="#EDF5E1"></rect><path d="M497 0L478.5 18C460 36 423 72 396.2 108C369.3 144 352.7 180 350.8 216C349 252 362 288 370.5 324C379 360 383 396 373.7 432C364.3 468 341.7 504 330.3 522L319 540L0 540L0 522C0 504 0 468 0 432C0 396 0 360 0 324C0 288 0 252 0 216C0 180 0 144 0 108C0 72 0 36 0 18L0 0Z" fill="#D56756" stroke-linecap="round" stroke-linejoin="miter"></path></svg>