<svg id="visual" viewBox="0 0 960 300" width="960" height="300" xmlns="http://www.w3.org/2000/svg" xmlns:xlink="http://www.w3.org/1999/xlink" version="1.1"><rect x="0" y="0" width="960" height="300" fill="#EDF5E1"></rect>
<path d="M0 171L20 172.5C40 174 80 177 120 187.5C160 198 200 216 240 218.7C280 221.3 320 208.7 360 199.8C400 191 440 186 480 180.3C520 174.7 560 168.3 600 169.2C640 170 680 178 720 186.8C760 195.7 800 205.3 840 207.8C880 210.3 920 205.7 940 203.3L960 201L960 0L940 0C920 0 880 0 840 0C800 0 760 0 720 0C680 0 640 0 600 0C560 0 520 0 480 0C440 0 400 0 360 0C320 0 280 0 240 0C200 0 160 0 120 0C80 0 40 0 20 0L0 0Z" fill="#dad3d3"></path>
<path d="M0 171L20 164C40 157 80 143 120 145.8C160 148.7 200 168.3 240 173.5C280 178.7 320 169.3 360 167.5C400 165.7 440 171.3 480 173C520 174.7 560 172.3 600 164C640 155.7 680 141.3 720 134.5C760 127.7 800 128.3 840 137.5C880 146.7 920 164.3 940 173.2L960 182L960 0L940 0C920 0 880 0 840 0C800 0 760 0 720 0C680 0 640 0 600 0C560 0 520 0 480 0C440 0 400 0 360 0C320 0 280 0 240 0C200 0 160 0 120 0C80 0 40 0 20 0L0 0Z" fill="#cfcaca"></path>
<path d="M0 135L20 130C40 125 80 115 120 111.7C160 108.3 200 111.7 240 113.5C280 115.3 320 115.7 360 112.2C400 108.7 440 101.3 480 99.2C520 97 560 100 600 106.3C640 112.7 680 122.3 720 130.2C760 138 800 144 840 143.7C880 143.3 920 136.7 940 133.3L960 130L960 0L940 0C920 0 880 0 840 0C800 0 760 0 720 0C680 0 640 0 600 0C560 0 520 0 480 0C440 0 400 0 360 0C320 0 280 0 240 0C200 0 160 0 120 0C80 0 40 0 20 0L0 0Z" fill="#c5c1c1"></path>
<path d="M0 93L20 93.8C40 94.7 80 96.3 120 97.3C160 98.3 200 98.7 240 100.3C280 102 320 105 360 99.7C400 94.3 440 80.7 480 79.5C520 78.3 560 89.7 600 96C640 102.3 680 103.7 720 103.3C760 103 800 101 840 101.2C880 101.3 920 103.7 940 104.8L960 106L960 0L940 0C920 0 880 0 840 0C800 0 760 0 720 0C680 0 640 0 600 0C560 0 520 0 480 0C440 0 400 0 360 0C320 0 280 0 240 0C200 0 160 0 120 0C80 0 40 0 20 0L0 0Z" fill="#bab8b8"></path>
<path d="M0 44L20 46.8C40 49.7 80 55.3 120 57.5C160 59.7 200 58.3 240 57.3C280 56.3 320 55.7 360 55.5C400 55.3 440 55.7 480 55.5C520 55.3 560 54.7 600 52.8C640 51 680 48 720 45.5C760 43 800 41 840 38.8C880 36.7 920 34.3 940 33.2L960 32L960 0L940 0C920 0 880 0 840 0C800 0 760 0 720 0C680 0 640 0 600 0C560 0 520 0 480 0C440 0 400 0 360 0C320 0 280 0 240 0C200 0 160 0 120 0C80 0 40 0 20 0L0 0Z" fill="#b0afaf"></path></svg>